<?xml version="1.0" standalone="no"?>
<!DOCTYPE svg PUBLIC "-//W3C//DTD SVG 20010904//EN"
 "http://www.w3.org/TR/2001/REC-SVG-20010904/DTD/svg10.dtd">
<svg version="1.0" xmlns="http://www.w3.org/2000/svg"
 width="768.000000pt" height="768.000000pt" viewBox="0 0 768.000000 768.000000"
 preserveAspectRatio="xMidYMid meet">
<metadata>
Created by potrace 1.14, written by Peter Selinger 2001-2017
</metadata>
<g transform="translate(0.000000,768.000000) scale(0.100000,-0.100000)"
fill="#000000" stroke="none">
<path d="M3648 7515 c-2 -1 -48 -5 -104 -9 -55 -4 -110 -8 -121 -10 -11 -3
-44 -7 -74 -11 -621 -75 -1288 -357 -1789 -759 -629 -503 -1063 -1162 -1270
-1924 -22 -81 -41 -158 -44 -172 -2 -14 -13 -72 -24 -130 -12 -58 -24 -132
-27 -165 -4 -33 -9 -69 -11 -79 -24 -130 -24 -690 1 -836 2 -14 7 -47 10 -75
7 -62 35 -227 40 -235 2 -3 6 -23 9 -44 10 -64 44 -192 88 -331 297 -953 990
-1759 1888 -2197 118 -58 137 -66 275 -123 161 -65 511 -167 655 -189 49 -8
92 -15 115 -21 11 -2 47 -7 80 -10 33 -3 70 -8 82 -10 153 -25 699 -26 830 -1
11 3 44 7 74 11 307 37 697 145 979 272 566 255 980 570 1385 1054 99 118 226
301 325 469 80 136 230 444 230 473 0 7 4 17 9 23 23 22 154 448 177 574 2 14
8 45 14 70 5 25 11 61 14 80 4 19 8 46 11 59 2 13 7 49 10 80 4 31 8 67 11 81
25 143 24 639 -1 830 -2 19 -7 58 -10 85 -4 28 -8 58 -11 67 -3 9 -7 32 -8 50
-6 54 -35 185 -71 323 -269 1022 -984 1893 -1935 2357 -118 58 -137 66 -275
123 -161 65 -513 167 -655 189 -19 3 -44 7 -55 10 -60 12 -130 21 -235 32 -36
3 -74 8 -85 11 -21 4 -502 12 -507 8z"/>
</g>
</svg>
